HIERARCHY
ROOT Hips
{
	OFFSET 0.000000 0.000000 0.000000
	CHANNELS 6 Xposition Yposition Zposition Zrotation Yrotation Xrotation 
	JOINT LowerBack
	{
		OFFSET 0.000000 0.000000 0.000000
		CHANNELS 3 Zrotation Yrotation Xrotation
		JOINT Spine
		{
			OFFSET 0.028270 2.035590 -0.193380
			CHANNELS 3 Zrotation Yrotation Xrotation
			JOINT Spine1
			{
				OFFSET 0.056720 2.048850 -0.042750
				CHANNELS 3 Zrotation Yrotation Xrotation
				JOINT Neck
				{
					OFFSET 0.000000 0.000000 0.000000
					CHANNELS 3 Zrotation Yrotation Xrotation
					JOINT Neck1
					{
						OFFSET -0.054170 1.746240 0.172020
						CHANNELS 3 Zrotation Yrotation Xrotation
						JOINT Head
						{
							OFFSET 0.104070 1.761360 -0.123970
							CHANNELS 3 Zrotation Yrotation Xrotation
							End Site
							{
								OFFSET 0.000000 0.000000 0.000000
							}
						}
					}
				}
				JOINT LeftShoulder
				{
					OFFSET 0.000000 0.000000 0.000000
					CHANNELS 3 Zrotation Yrotation Xrotation
					JOINT LeftArm
					{
						OFFSET 3.362410 1.200890 -0.311210
						CHANNELS 3 Zrotation Yrotation Xrotation
						JOINT LeftForeArm
						{
							OFFSET 4.983000 -0.000000 -0.000000
							CHANNELS 3 Zrotation Yrotation Xrotation
							JOINT LeftHand
							{
								OFFSET 3.483560 -0.000000 -0.000000
								CHANNELS 3 Zrotation Yrotation Xrotation
								JOINT LeftFingerBase
								{
									OFFSET 0.000000 0.000000 0.000000
									CHANNELS 3 Zrotation Yrotation Xrotation
									JOINT LeftHandIndex1
									{
										OFFSET 0.715260 -0.000000 -0.000000
										CHANNELS 3 Zrotation Yrotation Xrotation
										End Site
										{
											OFFSET 0.000000 0.000000 0.000000
										}
									}
								}
								JOINT LThumb
								{
									OFFSET 0.000000 0.000000 0.000000
									CHANNELS 3 Zrotation Yrotation Xrotation
									End Site
									{
										OFFSET 0.000000 0.000000 0.000000
									}
								}
							}
						}
					}
				}
				JOINT RightShoulder
				{
					OFFSET 0.000000 0.000000 0.000000
					CHANNELS 3 Zrotation Yrotation Xrotation
					JOINT RightArm
					{
						OFFSET -3.136600 1.374050 -0.404650
						CHANNELS 3 Zrotation Yrotation Xrotation
						JOINT RightForeArm
						{
							OFFSET -5.241900 -0.000000 -0.000000
							CHANNELS 3 Zrotation Yrotation Xrotation
							JOINT RightHand
							{
								OFFSET -3.444170 -0.000000 -0.000000
								CHANNELS 3 Zrotation Yrotation Xrotation
								JOINT RightFingerBase
								{
									OFFSET 0.000000 0.000000 0.000000
									CHANNELS 3 Zrotation Yrotation Xrotation
									JOINT RightHandIndex1
									{
										OFFSET -0.622530 -0.000000 -0.000000
										CHANNELS 3 Zrotation Yrotation Xrotation
										End Site
										{
											OFFSET 0.000000 0.000000 0.000000
										}
									}
								}
								JOINT RThumb
								{
									OFFSET 0.000000 0.000000 0.000000
									CHANNELS 3 Zrotation Yrotation Xrotation
									End Site
									{
										OFFSET 0.000000 0.000000 0.000000
									}
								}
							}
						}
					}
				}
			}
		}
	}
}
}
MOTION
Frames: 17
Frame Time: 0.008333
-21.378074 17.024616 0.486277 24.642771 85.046650 28.760646 -5.349956 0.224867 -4.230494 -1.656740 0.457300 -3.132042 -5.254640 0.376638 2.878327 7.746879 -11.651942 -9.085616 -1.939309 -0.136308 -0.349105 0.000000 0.000000 0.000000 -0.126758 25.658401 0.795677 -68.747587 24.512334 2.121991 -4.184377 -27.381929 -0.014479 -4.476808 2.996293 -0.118217 -0.116298 -0.109867 -0.000000 0.000000 0.000000 0.000000 0.000000 0.000000 0.000000 9.704374 -6.208125 -0.576721 56.503291 14.905206 18.360424 2.225859 43.798923 0.015270 5.429378 5.781418 0.279645 0.024280 -0.122668 0.000000 0.000000 0.000000 0.000000 0.000000 0.000000 0.000000 
-21.236409 17.024567 0.485080 24.869574 84.736891 28.898524 -5.782831 0.157743 -4.315960 -1.749658 0.419157 -3.147765 -5.302769 0.336775 2.884292 7.880553 -11.572552 -9.051025 -1.952649 -0.137838 -0.341157 0.000000 0.000000 0.000000 -0.146252 25.747305 0.789783 -68.465852 24.255737 1.458974 -4.246705 -26.624413 -0.014796 -4.474891 3.095741 -0.121926 -0.118703 -0.109507 -0.000000 0.000000 0.000000 0.000000 0.000000 0.000000 0.000000 9.865372 -6.151164 -0.624557 56.995036 14.735543 18.511651 2.242679 43.514242 0.015263 5.559356 5.764700 0.285445 0.023654 -0.120486 0.000000 0.000000 0.000000 0.000000 0.000000 0.000000 0.000000 
-21.098020 17.027580 0.484481 25.278986 84.470571 29.212951 -6.213185 0.079187 -4.373110 -1.840500 0.370452 -3.157855 -5.347421 0.286680 2.887751 8.000306 -11.500197 -9.015402 -1.965792 -0.139308 -0.333371 0.000000 0.000000 0.000000 -0.179380 25.792311 0.787375 -68.191243 23.901640 0.759932 -4.309991 -25.778026 -0.015053 -4.439147 3.208201 -0.125034 -0.121281 -0.108634 -0.000000 0.000000 0.000000 0.000000 0.000000 0.000000 0.000000 10.005419 -6.110136 -0.674813 57.550904 14.550399 18.582347 2.262350 43.184489 0.015252 5.664254 5.746153 0.289843 0.023448 -0.118432 0.000000 0.000000 0.000000 0.000000 0.000000 0.000000 0.000000 
-20.963695 17.033283 0.483816 25.723672 84.245758 29.551861 -6.624078 -0.004090 -4.392327 -1.926039 0.316761 -3.160956 -5.387402 0.232183 2.887380 8.099767 -11.429977 -8.979064 -1.978081 -0.140652 -0.325827 0.000000 0.000000 0.000000 -0.220294 25.791602 0.789793 -67.934282 23.441867 0.034693 -4.372771 -24.841166 -0.015224 -4.361453 3.329163 -0.127142 -0.124007 -0.107162 -0.000000 0.000000 0.000000 0.000000 0.000000 0.000000 0.000000 10.113127 -6.077197 -0.726415 58.161487 14.335078 18.560898 2.283798 42.830877 0.015234 5.745670 5.721734 0.292744 0.023559 -0.116548 0.000000 0.000000 0.000000 0.000000 0.000000 0.000000 0.000000 
-20.833745 17.041281 0.482239 26.069762 84.058860 29.776071 -6.997999 -0.085468 -4.366517 -2.002972 0.263401 -3.156253 -5.421844 0.178815 2.881723 8.174385 -11.363412 -8.942398 -1.988998 -0.141819 -0.318547 0.000000 0.000000 0.000000 -0.268612 25.740634 0.796829 -67.702078 22.881380 -0.709354 -4.433055 -23.827366 -0.015289 -4.236539 3.455259 -0.127749 -0.126812 -0.105059 -0.000000 0.000000 0.000000 0.000000 0.000000 0.000000 0.000000 10.181808 -6.051544 -0.777094 58.810467 14.089278 18.457665 2.306079 42.468627 0.015206 5.801271 5.691911 0.293945 0.023954 -0.114869 0.000000 0.000000 0.000000 0.000000 0.000000 0.000000 0.000000 
-20.708208 17.051079 0.479114 26.232285 83.904723 29.795454 -7.322647 -0.159272 -4.290583 -2.069110 0.215050 -3.143173 -5.450324 0.131426 2.870222 8.222518 -11.300148 -8.905798 -1.998184 -0.142773 -0.311564 0.000000 0.000000 0.000000 -0.320102 25.640820 0.808337 -67.501251 22.224230 -1.458365 -4.488894 -22.750344 -0.015239 -4.060826 3.581098 -0.126455 -0.129613 -0.102316 -0.000000 0.000000 0.000000 0.000000 0.000000 0.000000 0.000000 10.208816 -6.030546 -0.825059 59.479800 13.810528 18.285536 2.328073 42.115696 0.015166 5.833063 5.656281 0.293646 0.024538 -0.113397 0.000000 0.000000 0.000000 0.000000 0.000000 0.000000 0.000000 
-20.587199 17.062202 0.473842 26.132873 83.776151 29.528070 -7.587641 -0.220801 -4.163463 -2.122749 0.175461 -3.122215 -5.473160 0.093821 2.851132 8.244141 -11.239608 -8.868080 -2.005891 -0.143558 -0.304437 0.000000 0.000000 0.000000 -0.375167 25.487701 0.823257 -67.334584 21.490009 -2.200980 -4.538133 -21.639452 -0.015071 -3.835001 3.702418 -0.122860 -0.132298 -0.098998 -0.000000 0.000000 0.000000 0.000000 0.000000 0.000000 0.000000 10.195487 -6.011616 -0.867944 60.150187 13.499831 18.066763 2.349007 41.786314 0.015112 5.843972 5.616355 0.292046 0.025239 -0.112119 0.000000 0.000000 0.000000 0.000000 0.000000 0.000000 0.000000 
-20.470144 17.074159 0.466035 25.728401 83.666748 28.928826 -7.788829 -0.267600 -3.987646 -2.163423 0.146587 -3.093195 -5.490715 0.068031 2.828226 8.243741 -11.183836 -8.831357 -2.011872 -0.144126 -0.297700 0.000000 0.000000 0.000000 -0.422784 25.302182 0.841188 -67.206653 20.670793 -2.914272 -4.579575 -20.501755 -0.014795 -3.562097 3.815703 -0.117063 -0.134799 -0.095122 -0.000000 0.000000 0.000000 0.000000 0.000000 0.000000 0.000000 10.149195 -5.995802 -0.905837 60.801163 13.164369 17.830097 2.367564 41.493036 0.015034 5.839663 5.573205 0.289547 0.025920 -0.110967 0.000000 0.000000 0.000000 0.000000 0.000000 0.000000 0.000000 
-20.356792 17.086620 0.455727 25.039262 83.561717 28.016413 -7.931220 -0.297450 -3.767250 -2.192776 0.130784 -3.058945 -5.505101 0.056146 2.793794 8.224653 -11.125380 -8.788262 -2.017728 -0.144735 -0.289230 0.000000 0.000000 0.000000 -0.472625 25.054213 0.859552 -67.108162 19.830670 -3.574173 -4.610471 -19.405088 -0.014420 -3.245842 3.913745 -0.108666 -0.136943 -0.090994 -0.000000 0.000000 0.000000 0.000000 0.000000 0.000000 0.000000 10.076318 -5.973379 -0.935130 61.423359 12.794762 17.587772 2.384278 41.245325 0.014946 5.829379 5.526832 0.286646 0.026524 -0.109938 0.000000 0.000000 0.000000 0.000000 0.000000 0.000000 0.000000 
-20.246374 17.099209 0.442824 24.019551 83.458601 26.750125 -8.011927 -0.311927 -3.513802 -2.210419 0.126076 -3.018907 -5.516590 0.056258 2.759579 8.196426 -11.078278 -8.746298 -2.022719 -0.145220 -0.281051 0.000000 0.000000 0.000000 -0.507705 24.794667 0.877732 -67.044329 18.930940 -4.163617 -4.631906 -18.332990 -0.013988 -2.901360 4.000499 -0.098568 -0.138755 -0.086562 -0.000000 0.000000 0.000000 0.000000 0.000000 0.000000 0.000000 9.993946 -5.960074 -0.958786 61.994509 12.421707 17.393584 2.397780 41.040658 0.014832 5.815431 5.483379 0.283643 0.026965 -0.108891 0.000000 0.000000 0.000000 0.000000 0.000000 0.000000 0.000000 
-20.138474 17.111843 0.427637 22.709756 83.344700 25.173496 -8.039132 -0.311838 -3.237075 -2.218526 0.132059 -2.976570 -5.527684 0.067580 2.718983 8.163285 -11.030190 -8.697485 -2.028668 -0.145867 -0.270906 0.000000 0.000000 0.000000 -0.537048 24.500165 0.893732 -67.002648 18.030543 -4.652246 -4.642618 -17.346530 -0.013516 -2.538442 4.071434 -0.086969 -0.140127 -0.082153 -0.000000 0.000000 0.000000 0.000000 0.000000 0.000000 0.000000 9.909093 -5.942152 -0.975196 62.514274 12.031036 17.245902 2.409068 40.882426 0.014704 5.811535 5.441081 0.281238 0.027157 -0.107787 0.000000 0.000000 0.000000 0.000000 0.000000 0.000000 0.000000 
-20.032453 17.124409 0.410585 21.148596 83.216563 23.332209 -8.019262 -0.301134 -2.949648 -2.218553 0.145116 -2.933119 -5.539685 0.086331 2.676583 8.133454 -10.987169 -8.643304 -2.036071 -0.146707 -0.259177 0.000000 0.000000 0.000000 -0.556671 24.189329 0.906178 -66.977456 17.131168 -5.021315 -4.643779 -16.459402 -0.013044 -2.173199 4.130535 -0.074668 -0.141074 -0.077881 -0.000000 0.000000 0.000000 0.000000 0.000000 0.000000 0.000000 9.837002 -5.927467 -0.986023 62.975261 11.638729 17.171087 2.418229 40.762370 0.014559 5.822555 5.403238 0.279832 0.027066 -0.106533 0.000000 0.000000 0.000000 0.000000 0.000000 0.000000 0.000000 
-19.927511 17.136981 0.392200 19.399323 83.072248 21.295866 -7.960710 -0.284292 -2.662667 -2.212236 0.161284 -2.890467 -5.553933 0.108292 2.632566 8.111965 -10.947522 -8.581388 -2.045741 -0.147851 -0.245189 0.000000 0.000000 0.000000 -0.568518 23.863014 0.913879 -66.958959 16.253774 -5.248748 -4.636437 -15.697250 -0.012595 -1.820040 4.179130 -0.062267 -0.141604 -0.073915 -0.000000 0.000000 0.000000 0.000000 0.000000 0.000000 0.000000 9.786499 -5.916003 -0.992372 63.380100 11.248075 17.174812 2.425930 40.671591 0.014402 5.855166 5.371406 0.279624 0.026665 -0.105066 0.000000 0.000000 0.000000 0.000000 0.000000 0.000000 0.000000 
-19.823270 17.149616 0.373070 17.545077 82.916656 19.155931 -7.873964 -0.267277 -2.386854 -2.201509 0.175284 -2.849131 -5.571088 0.128070 2.592187 8.106052 -10.922992 -8.514708 -2.057860 -0.149278 -0.229757 0.000000 0.000000 0.000000 -0.569160 23.536966 0.915650 -66.940770 15.392118 -5.336429 -4.623083 -15.059304 -0.012201 -1.496238 4.222891 -0.050765 -0.141792 -0.070284 -0.000000 0.000000 0.000000 0.000000 0.000000 0.000000 0.000000 9.771537 -5.923006 -0.996240 63.728048 10.878165 17.275079 2.432464 40.596690 0.014228 5.910391 5.346866 0.281014 0.025979 -0.103309 0.000000 0.000000 0.000000 0.000000 0.000000 0.000000 0.000000 
-19.719164 17.162433 0.353770 15.665701 82.755615 16.998013 -7.769145 -0.255420 -2.129827 -2.188129 0.182465 -2.810218 -5.591664 0.140837 2.555863 8.117952 -10.914428 -8.442350 -2.072853 -0.151040 -0.212629 0.000000 0.000000 0.000000 -0.561462 23.210712 0.910885 -66.912751 14.556668 -5.276107 -4.605249 -14.555437 -0.011869 -1.211842 4.262936 -0.040461 -0.141687 -0.067064 -0.000000 0.000000 0.000000 0.000000 0.000000 0.000000 0.000000 9.796577 -5.951849 -0.999004 64.027412 10.531275 17.464901 2.438403 40.527015 0.014037 5.990149 5.329442 0.283803 0.025025 -0.101237 0.000000 0.000000 0.000000 0.000000 0.000000 0.000000 0.000000 
-19.615035 17.175561 0.334833 13.840162 82.598869 14.906783 -7.656479 -0.253733 -1.897539 -2.173773 0.178503 -2.774353 -5.615680 0.142145 2.524818 8.149003 -10.922053 -8.364366 -2.090952 -0.153154 -0.193841 0.000000 0.000000 0.000000 -0.544473 22.886846 0.899763 -66.868264 13.745639 -5.080374 -4.585039 -14.179363 -0.011607 -0.975930 4.300796 -0.031756 -0.141368 -0.064225 -0.000000 0.000000 0.000000 0.000000 0.000000 0.000000 0.000000 9.864312 -6.005194 -1.002410 64.287401 10.205415 17.728308 2.444013 40.456742 0.013822 6.097425 5.315260 0.288090 0.023789 -0.098822 0.000000 0.000000 0.000000 0.000000 0.000000 0.000000 0.000000 
-19.510761 17.189086 0.316641 12.095243 82.455140 12.911477 -7.539841 -0.265698 -1.691480 -2.158717 0.160227 -2.741818 -5.642445 0.128762 2.498057 8.196215 -10.952945 -8.280648 -2.111807 -0.155596 -0.173319 0.000000 0.000000 0.000000 -0.526216 22.553963 0.881617 -66.797909 12.974562 -4.740476 -4.562805 -13.942667 -0.011396 -0.789327 4.333892 -0.024850 -0.140861 -0.061847 -0.000000 0.000000 0.000000 0.000000 0.000000 0.000000 0.000000 9.970730 -6.092633 -1.006290 64.518871 9.909402 18.062661 2.450016 40.369148 0.013587 6.222879 5.307384 0.293476 0.022430 -0.096104 0.000000 0.000000 0.000000 0.000000 0.000000 0.000000 0.000000 
